{
  "accessors": [
    {
      "bufferView": 2,
      "componentType": 5126,
      "count": 31,
      "max": [
        48.078399658203125,
        -3.817199945449829,
        113.0885009765625
      ],
      "min": [
        -48.078399658203125,
        -27.973400115966797,
        85.34239959716797
      ],
      "type": "VEC3"
    },
    {
      "bufferView": 2,
      "byteOffset": 372,
      "componentType": 5126,
      "count": 31,
      "max": [
        0.35239386558532715,
        -0.7359934449195862,
        0.6126590967178345
      ],
      "min": [
        -0.35239386558532715,
        -0.83537358045578,
        0.53790283203125
      ],
      "type": "VEC3"
    },
    {
      "bufferView": 1,
      "componentType": 5126,
      "count": 31,
      "max": [
        1.0,
        0.942799985408783
      ],
      "min": [
        0.0,
        0.011699999682605267
      ],
      "type": "VEC2"
    },
    {
      "bufferView": 0,
      "componentType": 5125,
      "count": 108,
      "type": "SCALAR"
    },
    {
      "bufferView": 2,
      "byteOffset": 744,
      "componentType": 5126,
      "count": 2356,
      "max": [
        79.49949645996094,
        167.3419952392578,
        130.88870239257813
      ],
      "min": [
        -79.49949645996094,
        -139.1331024169922,
        12.99269962310791
      ],
      "type": "VEC3"
    },
    {
      "bufferView": 2,
      "byteOffset": 29016,
      "componentType": 5126,
      "count": 2356,
      "max": [
        1.0,
        0.9999982118606567,
        0.9999955892562866
      ],
      "min": [
        -1.0,
        -1.0,
        -1.0
      ],
      "type": "VEC3"
    },
    {
      "bufferView": 1,
      "byteOffset": 248,
      "componentType": 5126,
      "count": 2356,
      "max": [
        -0.005400000140070915,
        0.9902999997138977
      ],
      "min": [
        -0.9951000213623047,
        0.0034000000450760126
      ],
      "type": "VEC2"
    },
    {
      "bufferView": 0,
      "byteOffset": 432,
      "componentType": 5125,
      "count": 9999,
      "type": "SCALAR"
    },
    {
      "bufferView": 2,
      "byteOffset": 57288,
      "componentType": 5126,
      "count": 1208,
      "max": [
        79.49949645996094,
        147.9040985107422,
        121.556396484375
      ],
      "min": [
        -77.864501953125,
        -139.26939392089844,
        12.72029972076416
      ],
      "type": "VEC3"
    },
    {
      "bufferView": 2,
      "byteOffset": 71784,
      "componentType": 5126,
      "count": 1208,
      "max": [
        0.9999817609786987,
        0.9999939203262329,
        0.9996858239173889
      ],
      "min": [
        -0.9999284744262695,
        -0.9996190667152405,
        -1.0
      ],
      "type": "VEC3"
    },
    {
      "bufferView": 1,
      "byteOffset": 19096,
      "componentType": 5126,
      "count": 1208,
      "max": [
        -0.016499999910593033,
        0.9976000189781189
      ],
      "min": [
        -0.9980000257492065,
        0.0038999998942017555
      ],
      "type": "VEC2"
    },
    {
      "bufferView": 0,
      "byteOffset": 40428,
      "componentType": 5125,
      "count": 5349,
      "type": "SCALAR"
    },
    {
      "bufferView": 2,
      "byteOffset": 86280,
      "componentType": 5126,
      "count": 1724,
      "max": [
        79.37339782714844,
        116.11100006103516,
        79.96019744873047
      ],
      "min": [
        -79.37339782714844,
        -109.00189971923828,
        0.17800000309944153
      ],
      "type": "VEC3"
    },
    {
      "bufferView": 2,
      "byteOffset": 106968,
      "componentType": 5126,
      "count": 1724,
      "max": [
        1.0,
        1.0,
        0.9998934268951416
      ],
      "min": [
        -1.0,
        -1.0,
        -1.0
      ],
      "type": "VEC3"
    },
    {
      "bufferView": 1,
      "byteOffset": 28760,
      "componentType": 5126,
      "count": 1724,
      "max": [
        0.9901999831199646,
        -0.004900000058114529
      ],
      "min": [
        0.005200000014156103,
        -0.9922000169754028
      ],
      "type": "VEC2"
    },
    {
      "bufferView": 0,
      "byteOffset": 61824,
      "componentType": 5125,
      "count": 6624,
      "type": "SCALAR"
    },
    {
      "bufferView": 2,
      "byteOffset": 127656,
      "componentType": 5126,
      "count": 25,
      "max": [
        61.201698303222656,
        -123.06800079345703,
        61.86470031738281
      ],
      "min": [
        -61.201698303222656,
        -134.17750549316406,
        49.82659912109375
      ],
      "type": "VEC3"
    },
    {
      "bufferView": 2,
      "byteOffset": 127956,
      "componentType": 5126,
      "count": 25,
      "max": [
        0.3374103307723999,
        -0.8838158249855042,
        0.4678083658218384
      ],
      "min": [
        -0.3374103307723999,
        -0.9475141167640686,
        0.2591038644313812
      ],
      "type": "VEC3"
    },
    {
      "bufferView": 1,
      "byteOffset": 42552,
      "componentType": 5126,
      "count": 25,
      "max": [
        -1.0370999574661255,
        0.9060999751091003
      ],
      "min": [
        -1.9521000385284424,
        0.10209999978542328
      ],
      "type": "VEC2"
    },
    {
      "bufferView": 0,
      "byteOffset": 88320,
      "componentType": 5125,
      "count": 72,
      "type": "SCALAR"
    },
    {
      "bufferView": 2,
      "byteOffset": 128256,
      "componentType": 5126,
      "count": 27,
      "max": [
        56.14889907836914,
        144.32550048828125,
        97.768798828125
      ],
      "min": [
        -56.14889907836914,
        134.79660034179688,
        79.65869903564453
      ],
      "type": "VEC3"
    },
    {
      "bufferView": 2,
      "byteOffset": 128580,
      "componentType": 5126,
      "count": 27,
      "max": [
        0.013099811039865017,
        0.9123043417930603,
        -0.40950196981430054
      ],
      "min": [
        -0.013099811039865017,
        0.853887677192688,
        -0.5202924609184265
      ],
      "type": "VEC3"
    },
    {
      "bufferView": 1,
      "byteOffset": 42752,
      "componentType": 5126,
      "count": 27,
      "max": [
        -0.03290000185370445,
        -0.030300000682473183
      ],
      "min": [
        -0.8618000149726868,
        -0.9726999998092651
      ],
      "type": "VEC2"
    },
    {
      "bufferView": 0,
      "byteOffset": 88608,
      "componentType": 5125,
      "count": 84,
      "type": "SCALAR"
    }
  ],
  "asset": {
    "extras": {
      "author": "Neut2000 (https://sketchfab.com/Neut2000)",
      "license": "CC-BY-4.0 (http://creativecommons.org/licenses/by/4.0/)",
      "source": "https://sketchfab.com/3d-models/disney-infinity-lightning-mc-queen-89495fca06f04e08a62ef0129766b5d2",
      "title": "Disney Infinity Lightning Mc Queen"
    },
    "generator": "Sketchfab-11.10.0",
    "version": "2.0"
  },
  "bufferViews": [
    {
      "buffer": 0,
      "byteLength": 88944,
      "name": "floatBufferViews",
      "target": 34963
    },
    {
      "buffer": 0,
      "byteLength": 42968,
      "byteOffset": 88944,
      "byteStride": 8,
      "name": "floatBufferViews",
      "target": 34962
    },
    {
      "buffer": 0,
      "byteLength": 128904,
      "byteOffset": 131912,
      "byteStride": 12,
      "name": "floatBufferViews",
      "target": 34962
    }
  ],
  "buffers": [
    {
      "byteLength": 260816,
      "uri": "mcqueen.bin"
    }
  ],
  "images": [
    {
      "uri": "mcqueentextures/Material__29_baseColor.png"
    },
    {
      "uri": "mcqueentextures/Material__30_baseColor.png"
    },
    {
      "uri": "mcqueentextures/Material__34_baseColor.png"
    },
    {
      "uri": "mcqueentextures/Material__35_baseColor.png"
    },
    {
      "uri": "mcqueentextures/Material__81_baseColor.png"
    }
  ],
  "materials": [
    {
      "doubleSided": true,
      "emissiveTexture": {
        "index": 0
      },
      "name": "Material__29",
      "pbrMetallicRoughness": {
        "baseColorTexture": {
          "index": 0
        },
        "metallicFactor": 0.0
      }
    },
    {
      "doubleSided": true,
      "emissiveTexture": {
        "index": 1
      },
      "name": "Material__30",
      "pbrMetallicRoughness": {
        "baseColorTexture": {
          "index": 1
        },
        "metallicFactor": 0.0
      }
    },
    {
      "doubleSided": true,
      "emissiveTexture": {
        "index": 2
      },
      "name": "Material__34",
      "pbrMetallicRoughness": {
        "baseColorTexture": {
          "index": 2
        },
        "metallicFactor": 0.0
      }
    },
    {
      "doubleSided": true,
      "emissiveTexture": {
        "index": 3
      },
      "name": "Material__35",
      "pbrMetallicRoughness": {
        "baseColorTexture": {
          "index": 3
        },
        "metallicFactor": 0.0
      }
    },
    {
      "doubleSided": true,
      "emissiveTexture": {
        "index": 4
      },
      "name": "Material__81",
      "pbrMetallicRoughness": {
        "baseColorTexture": {
          "index": 4
        },
        "metallicFactor": 0.0
      }
    }
  ],
  "meshes": [
    {
      "name": "Object_0",
      "primitives": [
        {
          "attributes": {
            "NORMAL": 1,
            "POSITION": 0,
            "TEXCOORD_0": 2
          },
          "indices": 3,
          "material": 0,
          "mode": 4
        }
      ]
    },
    {
      "name": "Object_1",
      "primitives": [
        {
          "attributes": {
            "NORMAL": 5,
            "POSITION": 4,
            "TEXCOORD_0": 6
          },
          "indices": 7,
          "material": 1,
          "mode": 4
        }
      ]
    },
    {
      "name": "Object_2",
      "primitives": [
        {
          "attributes": {
            "NORMAL": 9,
            "POSITION": 8,
            "TEXCOORD_0": 10
          },
          "indices": 11,
          "material": 1,
          "mode": 4
        }
      ]
    },
    {
      "name": "Object_3",
      "primitives": [
        {
          "attributes": {
            "NORMAL": 13,
            "POSITION": 12,
            "TEXCOORD_0": 14
          },
          "indices": 15,
          "material": 2,
          "mode": 4
        }
      ]
    },
    {
      "name": "Object_4",
      "primitives": [
        {
          "attributes": {
            "NORMAL": 17,
            "POSITION": 16,
            "TEXCOORD_0": 18
          },
          "indices": 19,
          "material": 3,
          "mode": 4
        }
      ]
    },
    {
      "name": "Object_5",
      "primitives": [
        {
          "attributes": {
            "NORMAL": 21,
            "POSITION": 20,
            "TEXCOORD_0": 22
          },
          "indices": 23,
          "material": 4,
          "mode": 4
        }
      ]
    }
  ],
  "nodes": [
    {
      "children": [
        1
      ],
      "matrix": [
        1.0,
        0.0,
        0.0,
        0.0,
        0.0,
        2.220446049250313e-16,
        -1.0,
        0.0,
        0.0,
        1.0,
        2.220446049250313e-16,
        0.0,
        0.0,
        0.0,
        0.0,
        1.0
      ],
      "name": "Sketchfab_model"
    },
    {
      "children": [
        2,
        3,
        4,
        5,
        6,
        7
      ],
      "name": "Lightning McQueen.obj.cleaner.materialmerger.gles"
    },
    {
      "mesh": 0,
      "name": "Object_2"
    },
    {
      "mesh": 1,
      "name": "Object_3"
    },
    {
      "mesh": 2,
      "name": "Object_4"
    },
    {
      "mesh": 3,
      "name": "Object_5"
    },
    {
      "mesh": 4,
      "name": "Object_6"
    },
    {
      "mesh": 5,
      "name": "Object_7"
    }
  ],
  "samplers": [
    {
      "magFilter": 9729,
      "minFilter": 9987,
      "wrapS": 10497,
      "wrapT": 10497
    }
  ],
  "scene": 0,
  "scenes": [
    {
      "name": "Sketchfab_Scene",
      "nodes": [
        0
      ]
    }
  ],
  "textures": [
    {
      "sampler": 0,
      "source": 0
    },
    {
      "sampler": 0,
      "source": 1
    },
    {
      "sampler": 0,
      "source": 2
    },
    {
      "sampler": 0,
      "source": 3
    },
    {
      "sampler": 0,
      "source": 4
    }
  ]
}
